<?xml version="1.0" encoding="UTF-8" standalone="no"?>
<svg
   xmlns:dc="http://purl.org/dc/elements/1.1/"
   xmlns:cc="http://creativecommons.org/ns#"
   xmlns:rdf="http://www.w3.org/1999/02/22-rdf-syntax-ns#"
   xmlns:svg="http://www.w3.org/2000/svg"
   xmlns="http://www.w3.org/2000/svg"
   xmlns:sodipodi="http://sodipodi.sourceforge.net/DTD/sodipodi-0.dtd"
   xmlns:inkscape="http://www.inkscape.org/namespaces/inkscape"
   id="Layer_4"
   viewBox="95 151 399.99998 115.4444"
   version="1.1"
   sodipodi:docname="organizer-logo.svg"
   width="400"
   height="115.4444"
   inkscape:version="0.92.3 (2405546, 2018-03-11)">
  <metadata
     id="metadata4733">
    <rdf:RDF>
      <cc:Work
         rdf:about="">
        <dc:format>image/svg+xml</dc:format>
        <dc:type
           rdf:resource="http://purl.org/dc/dcmitype/StillImage" />
        <dc:title></dc:title>
      </cc:Work>
    </rdf:RDF>
  </metadata>
  <defs
     id="defs4731" />
  <sodipodi:namedview
     pagecolor="#ffffff"
     bordercolor="#666666"
     borderopacity="1"
     objecttolerance="10"
     gridtolerance="10"
     guidetolerance="10"
     inkscape:pageopacity="0"
     inkscape:pageshadow="2"
     inkscape:window-width="1600"
     inkscape:window-height="845"
     id="namedview4729"
     showgrid="false"
     inkscape:zoom="1.3034704"
     inkscape:cx="787.9522"
     inkscape:cy="124.55369"
     inkscape:window-x="0"
     inkscape:window-y="180"
     inkscape:window-maximized="1"
     inkscape:current-layer="Layer_4" />
  <style
     id="style4713">.st0{fill:#757575}</style>
  <g
     id="XMLID_6_"
     transform="translate(0,-84.5556)">
    <path
       id="XMLID_3_"
       class="st0"
       d="m 454.9,255.4 c 0,22 -6.5,39.6 -19.6,52.7 -14.8,15.6 -34.1,23.4 -57.9,23.4 -22.8,0 -42.1,-7.9 -58.1,-23.7 -15.9,-15.8 -23.9,-35.4 -23.9,-58.7 0,-23.3 8,-42.9 23.9,-58.7 15.9,-15.8 35.3,-23.7 58.1,-23.7 11.3,0 22.1,2.2 32.4,6.6 10.3,4.4 18.5,10.3 24.7,17.6 l -13.9,13.9 C 410.1,192.2 395.7,186 377.3,186 c -16.6,0 -31,5.8 -43.1,17.5 -12.1,11.7 -18.2,26.8 -18.2,45.5 0,18.7 6.1,33.8 18.2,45.5 12.1,11.7 26.5,17.5 43.1,17.5 17.6,0 32.3,-5.9 44.1,-17.6 7.6,-7.6 12,-18.3 13.2,-31.9 h -57.3 v -19 h 76.4 c 0.8,4.1 1.2,8.1 1.2,11.9 z"
       inkscape:connector-curvature="0"
       style="fill:#757575" />
    <path
       id="XMLID_20_"
       class="st0"
       d="M 475.3,327.9 V 170.1 h 48.2 c 24.2,0 43.6,7.3 58.2,21.9 14.5,14.6 21.8,33.6 21.8,57 0,23.4 -7.3,42.3 -21.8,57 -14.5,14.6 -33.9,21.9 -58.2,21.9 z m 20.3,-19.4 h 28 c 18.2,0 32.6,-5.2 43.3,-15.6 10.6,-10.4 16,-25 16,-43.8 0,-18.7 -5.3,-33.2 -16,-43.7 -10.7,-10.5 -25.1,-15.8 -43.3,-15.8 h -28 z"
       inkscape:connector-curvature="0"
       style="fill:#757575" />
    <path
       id="XMLID_23_"
       class="st0"
       d="m 776,255.4 c 0,22 -6.5,39.6 -19.6,52.7 -14.8,15.6 -34.1,23.4 -57.9,23.4 -22.8,0 -42.1,-7.9 -58.1,-23.7 -15.9,-15.8 -23.9,-35.4 -23.9,-58.7 0,-23.3 8,-42.9 23.9,-58.7 15.9,-15.8 35.3,-23.7 58.1,-23.7 11.3,0 22.1,2.2 32.4,6.6 10.3,4.4 18.5,10.3 24.7,17.6 l -13.9,13.9 C 731.2,192.2 716.8,186 698.4,186 c -16.6,0 -31,5.8 -43.1,17.5 -12.1,11.7 -18.2,26.8 -18.2,45.5 0,18.7 6.1,33.8 18.2,45.5 12.1,11.7 26.5,17.5 43.1,17.5 17.6,0 32.3,-5.9 44.1,-17.6 7.6,-7.6 12,-18.3 13.2,-31.9 h -57.3 v -19 h 76.4 c 0.8,4.1 1.2,8.1 1.2,11.9 z"
       inkscape:connector-curvature="0"
       style="fill:#757575" />
    <path
       id="XMLID_25_"
       class="st0"
       d="M 850,327.9 V 170.1 h 20.3 v 138.4 h 68.3 v 19.4 z"
       inkscape:connector-curvature="0"
       style="fill:#757575" />
    <path
       id="XMLID_27_"
       class="st0"
       d="M 970.6,327.9 927,219.9 h 22 l 31.7,83.7 h 0.4 l 32.2,-83.7 h 21.7 l -44.1,108 z"
       inkscape:connector-curvature="0"
       style="fill:#757575" />
    <path
       id="XMLID_29_"
       class="st0"
       d="m 1065.8,192.8 c -2.8,2.8 -6.2,4.2 -10.1,4.2 -3.9,0 -7.3,-1.4 -10.1,-4.2 -2.8,-2.8 -4.2,-6.2 -4.2,-10.1 0,-3.9 1.4,-7.3 4.2,-10.1 2.8,-2.8 6.2,-4.2 10.1,-4.2 3.9,0 7.3,1.4 10.1,4.2 2.8,2.8 4.2,6.2 4.2,10.1 0,3.9 -1.4,7.3 -4.2,10.1 z m 0,135.1 h -20.3 v -108 h 20.3 z"
       inkscape:connector-curvature="0"
       style="fill:#757575" />
    <path
       id="XMLID_32_"
       class="st0"
       d="m 1120,327.9 -43.6,-108 h 22 l 31.7,83.7 h 0.4 l 32.2,-83.7 h 21.6 l -44.1,108 z"
       inkscape:connector-curvature="0"
       style="fill:#757575" />
  </g>
  <path
     style="fill:#757575"
     inkscape:connector-curvature="0"
     d="M 127.3,66.4444 H 95 l 92.3,160 16.2,-28 z"
     class="st0"
     id="XMLID_259_" />
  <path
     style="fill:#757575"
     inkscape:connector-curvature="0"
     d="m 215.9,157.4444 -52.6,-91 h -32.2 l 74.3,128.8 10.5,-18.2 c 1.7,-2.8 2.8,-6.2 2.8,-9.8 -0.1,-3.6 -1.1,-6.9 -2.8,-9.8 z"
     class="st0"
     id="XMLID_258_" />
  <path
     style="fill:#757575"
     inkscape:connector-curvature="0"
     d="m 151.3,170.5444 -55.4,95.9 h 32.3 l 39.3,-68 z"
     class="st0"
     id="XMLID_257_" />
  <path
     style="fill:#757575"
     inkscape:connector-curvature="0"
     d="m 169.3,201.7444 -37.3,64.7 h 32.2 l 21.3,-36.8 z"
     class="st0"
     id="XMLID_256_" />
</svg>
